#!OML:ASF X:\2005_08_12_Meinard\c3d\meinard.ASF
:FULLY-SPECIFIED
:DEGREES
1036
root 3.15995 16.2577 -0.136856 -43.6491 -78.6668 27.3216
lowerback 37.9802 0.358969 -7.02782
upperback 5.49364 -3.28002 -1.04309
thorax -12.2941 -1.53836 4.0144
lowerneck -14.6436 -3.95385 -5.9094
upperneck 0.662842 -4.82723 8.66956
head 2.90761 -2.12887 3.27288
rclavicle -1.63997e-014 9.34288e-015
rhumerus -48.3738 -0.190779 -81.7536
rradius 70.4924
rwrist 6.09122
rhand -2.03087 -6.41102
rfingers 7.12502
rthumb 23.6438 -34.9771
lclavicle -1.63997e-014 9.34288e-015
lhumerus -23.025 3.0361 70.1649
lradius 57.5017
lwrist -204.256
lhand -12.638 0.629892
lfingers 7.12502
lthumb 13.4421 30.1762
rfemur -195.481 -174.791 196.097
rtibia 58.4478
rfoot 158.371 159.235
rtoes 5.30842
lfemur 1.54607 -5.61162 -28.4321
ltibia 43.652
lfoot -21.1398 20.7192
ltoes 19.0293
1037
root 3.1415 16.2774 -0.124397 -43.3884 -79.4482 27.0033
lowerback 37.7877 0.250845 -6.39841
upperback 5.27766 -3.13037 -1.01662
thorax -12.5243 -1.46879 3.6578
lowerneck -14.3768 -3.72402 -5.57864
upperneck 1.33149 -4.5683 8.04288
head 3.02286 -2.01229 3.04535
rclavicle 8.05078e-015 -3.27001e-014
rhumerus -48.11 0.0775412 -82.1658
rradius 69.5534
rwrist 6.19192
rhand -1.77682 -6.16911
rfingers 7.12502
rthumb 23.8874 -34.7035
lclavicle 8.05078e-015 -3.27001e-014
lhumerus -24.6976 3.52722 70.133
lradius 57.3321
lwrist -203.999
lhand -12.1902 0.952202
lfingers 7.12502
lthumb 13.8737 30.4694
rfemur -195.115 -175.114 196.715
rtibia 58.179
rfoot 158.581 159.279
rtoes 5.51731
lfemur 1.75978 -5.91828 -28.1484
ltibia 43.7294
lfoot -21.0136 21.377
ltoes 18.4391
1038
root 3.11019 16.3011 -0.110689 -42.9357 -80.2521 26.4778
lowerback 37.4638 0.135086 -5.75809
upperback 5.08284 -2.96302 -0.910377
thorax -12.6763 -1.39689 3.36916
lowerneck -14.1668 -3.51469 -5.46469
upperneck 2.16731 -4.29728 7.41541
head 3.20458 -1.88911 2.85232
rclavicle -6.73383e-015 -1.32192e-014
rhumerus -47.9238 0.648897 -82.5055
rradius 68.7102
rwrist 6.12858
rhand -1.63789 -5.94665
rfingers 7.12502
rthumb 24.0207 -34.4636
lclavicle -6.73383e-015 -1.32192e-014
lhumerus -26.4182 4.10961 70.1921
lradius 57.1256
lwrist -203.798
lhand -11.6397 1.43978
lfingers 7.12502
lthumb 14.4041 30.92
rfemur -194.622 -175.482 197.358
rtibia 57.8386
rfoot 158.769 159.474
rtoes 5.97161
lfemur 1.97605 -6.09227 -27.7843
ltibia 43.9032
lfoot -21.0019 21.9291
ltoes 17.8146
1039
root 3.08018 16.3247 -0.0927116 -43.3142 -81.1684 26.7739
lowerback 37.1296 0.106086 -5.1747
upperback 4.89524 -2.70597 -0.756524
thorax -12.8127 -1.28561 3.12211
lowerneck -13.9634 -3.33395 -5.561
upperneck 3.04042 -4.0255 6.81681
head 3.40646 -1.76993 2.70234
rclavicle 6.26172e-015 2.61402e-014
rhumerus -47.7994 1.3418 -82.7822
rradius 68.0016
rwrist 6.00897
rhand -1.50265 -5.84318
rfingers 7.12502
rthumb 24.1503 -34.3429
lclavicle 6.26172e-015 2.61402e-014
lhumerus -28.2019 4.90386 70.3179
lradius 57.0759
lwrist -203.705
lhand -11.2342 2.05163
lfingers 7.12502
lthumb 14.7948 31.5035
rfemur -194.102 -175.988 197.929
rtibia 57.4302
rfoot 159.059 159.872
rtoes 6.46693
lfemur 2.12117 -6.1248 -27.4831
ltibia 44.2421
lfoot -20.9617 22.4933
ltoes 17.0345
1040
root 3.04849 16.3486 -0.0750638 -43.6262 -82.0344 27.0218
lowerback 36.7544 0.072875 -4.55988
upperback 4.70646 -2.43779 -0.581811
thorax -12.931 -1.17191 2.87423
lowerneck -13.8015 -3.18722 -5.74698
upperneck 4.0165 -3.77908 6.20891
head 3.6518 -1.66892 2.56166
rclavicle 3.69041e-014 7.16557e-015
rhumerus -47.6784 1.96963 -83.0627
rradius 67.3224
rwrist 5.90672
rhand -1.48751 -5.76672
rfingers 7.12502
rthumb 24.1649 -34.2646
lclavicle 3.69041e-014 7.16557e-015
lhumerus -30.1204 5.72659 70.4734
lradius 57.2863
lwrist -203.633
lhand -10.9292 2.61813
lfingers 7.12502
lthumb 15.0887 32.0482
rfemur -193.557 -176.454 198.463
rtibia 56.9748
rfoot 159.409 160.371
rtoes 7.33276
lfemur 2.06541 -6.04002 -27.1404
ltibia 44.8726
lfoot -20.7728 22.8952
ltoes 16.5397
1041
root 3.01293 16.3753 -0.0633349 -42.2241 -82.7135 25.5938
lowerback 36.2736 -0.0812025 -3.84736
upperback 4.55341 -2.27535 -0.367505
thorax -12.9581 -1.11344 2.65783
lowerneck -13.667 -3.04905 -5.98487
upperneck 4.99907 -3.52837 5.60131
head 3.90672 -1.57356 2.4299
rclavicle 2.05742e-014 -4.22417e-015
rhumerus -47.4233 2.6184 -83.343
rradius 66.6457
rwrist 5.78728
rhand -1.52609 -5.86286
rfingers 7.12502
rthumb 24.1279 -34.3656
lclavicle 2.05742e-014 -4.22417e-015
lhumerus -32.0916 6.62238 70.6214
lradius 57.5781
lwrist -203.568
lhand -10.7331 3.14863
lfingers 7.12502
lthumb 15.2776 32.5644
rfemur -192.946 -176.741 199.059
rtibia 56.4333
rfoot 159.723 160.88
rtoes 8.10403
lfemur 1.71113 -5.92284 -26.6045
ltibia 45.8681
lfoot -20.317 22.9323
ltoes 16.4097
1042
root 2.98906 16.3907 -0.0529502 -39.9263 -83.3234 23.3145
lowerback 35.8381 -0.288861 -3.03238
upperback 4.3821 -2.15689 -0.194
thorax -13.0204 -1.07907 2.3611
lowerneck -13.5935 -2.9172 -6.16775
upperneck 6.04736 -3.29036 5.01376
head 4.19453 -1.48888 2.29423
rclavicle -2.09718e-014 -7.95139e-015
rhumerus -47.1731 3.26561 -83.6495
rradius 66.1607
rwrist 5.58657
rhand -1.57496 -6.17283
rfingers 7.12502
rthumb 24.081 -34.6818
lclavicle -2.09718e-014 -7.95139e-015
lhumerus -34.2356 7.32157 70.7018
lradius 58.226
lwrist -203.334
lhand -10.6497 3.47012
lfingers 7.12502
lthumb 15.3579 32.8798
rfemur -192.428 -176.921 199.657
rtibia 55.8563
rfoot 160.093 161.503
rtoes 8.65772
lfemur 0.93103 -5.58408 -25.915
ltibia 47.3476
lfoot -19.6177 22.6589
ltoes 16.3341
1043
root 2.97447 16.4095 -0.043904 -36.7152 -83.8555 20.0653
lowerback 35.4658 -0.541838 -2.11195
upperback 4.29339 -2.07794 -0.0893485
thorax -13.1277 -1.07018 1.96064
lowerneck -13.5033 -2.77984 -6.20567
upperneck 7.05923 -3.06426 4.41874
head 4.46961 -1.41434 2.13252
rclavicle 7.77745e-015 2.38542e-015
rhumerus -46.9612 3.91085 -83.9761
rradius 65.8943
rwrist 5.2931
rhand -1.63254 -6.59624
rfingers 7.12502
rthumb 24.0258 -35.1125
lclavicle 7.77745e-015 2.38542e-015
lhumerus -36.4784 7.83813 70.6907
lradius 59.1639
lwrist -202.879
lhand -10.7283 3.54682
lfingers 7.12502
lthumb 15.2822 32.9622
rfemur -191.82 -177.048 200.249
rtibia 55.1977
rfoot 160.414 162.168
rtoes 8.70733
lfemur -0.160676 -5.09484 -25.1243
ltibia 49.3114
lfoot -18.5619 22.1623
ltoes 16.0135
1044
root 2.96236 16.4209 -0.0347766 -32.8926 -84.2892 16.0318
lowerback 35.3585 -0.816133 -1.11015
upperback 4.19539 -2.02814 -0.0567967
thorax -13.2312 -1.08612 1.44001
lowerneck -13.4906 -2.65766 -6.10762
upperneck 8.06852 -2.87334 3.83032
head 4.75944 -1.35785 1.94761
rclavicle 1.52567e-014 -1.33186e-014
rhumerus -46.8062 4.46357 -84.2972
rradius 65.8431
rwrist 4.95119
rhand -1.73028 -7.0654
rfingers 7.12502
rthumb 23.9321 -35.594
lclavicle 1.52567e-014 -1.33186e-014
lhumerus -38.5884 8.20077 70.5969
lradius 60.0594
lwrist -202.241
lhand -10.8349 3.58319
lfingers 7.12502
lthumb 15.1795 33.0064
rfemur -191.014 -177.066 200.787
rtibia 54.5209
rfoot 160.628 162.87
rtoes 8.5321
lfemur -1.45635 -4.47941 -24.3119
ltibia 51.7709
lfoot -16.8436 21.5972
ltoes 15.2605
1045
root 2.95212 16.4177 -0.0239725 -29.338 -84.6018 12.0101
lowerback 35.4984 -1.06944 -0.134911
upperback 4.17725 -1.98276 -0.0685176
thorax -13.3352 -1.11056 0.891136
lowerneck -13.4654 -2.56689 -5.96087
upperneck 9.01326 -2.7293 3.25731
head 5.03195 -1.32637 1.75578
rclavicle -3.28492e-014 1.19271e-015
rhumerus -46.6865 4.86903 -84.5342
rradius 65.8804
rwrist 4.70781
rhand -1.88594 -7.47678
rfingers 7.12502
rthumb 23.7828 -36.0249
lclavicle -3.28492e-014 1.19271e-015
lhumerus -40.3484 8.56033 70.4906
lradius 60.4803
lwrist -201.516
lhand -10.9241 3.702
lfingers 7.12502
lthumb 15.0936 33.1317
rfemur -189.902 -176.937 201.169
rtibia 53.8153
rfoot 160.694 163.674
rtoes 8.47923
lfemur -2.80382 -3.79373 -23.6013
ltibia 54.6519
lfoot -14.2665 20.9379
ltoes 14.9336
